<svg xmlns="http://www.w3.org/2000/svg" width="479.111" height="204" viewBox="0 0 479.111 204">
  <defs>
    <style>
      .cls-1 {
        mix-blend-mode: darken;
        isolation: isolate;
      }

      .cls-2, .cls-4 {
        fill: #0167f3;
      }

      .cls-3 {
        fill: #fdfdfd;
        font-size: 23px;
        font-family: TwCenMT-Regular, Tw Cen MT;
      }

      .cls-4 {
        font-size: 144px;
        font-family: VIPRawyRegular, VIP Rawy Regular;
      }
    </style>
  </defs>
  <g id="Group_8" data-name="Group 8" transform="translate(-649 -335)">
    <g id="Group_7" data-name="Group 7">
      <g id="Group_3" data-name="Group 3" transform="translate(1015.777 428.977)">
        <g id="Group_2" data-name="Group 2" class="cls-1" transform="translate(0)">
          <path id="Path_1" data-name="Path 1" class="cls-2" d="M-51.782-10.258h84.77A10.137,10.137,0,0,1,42.935.058V31.925a10.137,10.137,0,0,1-9.947,10.317h-84.77a10.137,10.137,0,0,1-9.947-10.317V.058C-61.729-5.639-84.4-15.082-51.782-10.258Z" transform="translate(69.399 11.586)"/>
          <text id="S_T_O_R_E" data-name="S T O R E" class="cls-3" transform="translate(14.223 34.023)"><tspan x="0" y="0">S T O R E</tspan></text>
        </g>
      </g>
      <text id="دكاكين" class="cls-4" transform="translate(649 483)"><tspan x="0" y="0">دكاكين</tspan></text>
      <g id="white-logo" transform="translate(1030.112 374.134)">
        <g id="Group_6" data-name="Group 6" transform="translate(0 0)">
          <g id="Group_4" data-name="Group 4" transform="translate(14.943)">
            <path id="Path_2" data-name="Path 2" class="cls-2" d="M32.2,44.067a6.167,6.167,0,0,0,12.334,0A6.2,6.2,0,0,0,38.367,37.9,6.279,6.279,0,0,0,32.2,44.067Zm4.032,0a2.135,2.135,0,1,1,4.269,0,2.138,2.138,0,1,1-4.269,0Z" transform="translate(-11.92 3.608)"/>
            <path id="Path_3" data-name="Path 3" class="cls-2" d="M44.2,44.067a6.167,6.167,0,0,0,12.334,0A6.2,6.2,0,0,0,50.367,37.9,6.279,6.279,0,0,0,44.2,44.067Zm4.032,0a2.135,2.135,0,1,1,4.269,0,2.138,2.138,0,1,1-4.269,0Z" transform="translate(-9.689 3.608)"/>
            <path id="Path_4" data-name="Path 4" class="cls-2" d="M70.484,18.555a3.4,3.4,0,0,0-2.609-1.186H29.924L27.078,5.035A2.647,2.647,0,0,0,24.588,2.9h-7A2.337,2.337,0,0,0,15.1,5.272a2.365,2.365,0,0,0,2.49,2.49h5.1l7,31.783a2.647,2.647,0,0,0,2.49,2.135H62.064a3.13,3.13,0,0,0,3.321-2.609l5.574-17.2A2.743,2.743,0,0,0,70.484,18.555ZM42.14,36.818H34.431L33.008,29.94h9.013v6.879Zm0-9.25H32.652l-1.067-5.337H42.14Zm10.318,9.25H44.274V29.94h8.183Zm0-9.25H44.274V22.231h8.183Zm8.657,9.25H54.829V29.94h8.539Zm2.965-9.25H54.711V22.231H65.859Z" transform="translate(-15.1 -2.9)"/>
          </g>
          <g id="Group_5" data-name="Group 5" transform="translate(0 7.827)">
            <path id="Path_5" data-name="Path 5" class="cls-2" d="M29.065,40.216c0,.119,0,.237-.119.237h-5.93a1.762,1.762,0,0,1-1.3-2.965,1.523,1.523,0,0,1,1.186-.474h2.135a1.812,1.812,0,0,0,1.186-.474,2.481,2.481,0,0,0,.474-.712,1.909,1.909,0,0,0-1.9-2.253H11.988a1.762,1.762,0,0,1-1.3-2.965,1.523,1.523,0,0,1,1.186-.474H17.8a1.812,1.812,0,0,0,1.186-.474,2.481,2.481,0,0,0,.474-.712,1.909,1.909,0,0,0-1.9-2.253H15.783a1.762,1.762,0,0,1-1.3-2.965,1.523,1.523,0,0,1,1.186-.474h5.811a1.812,1.812,0,0,0,1.186-.474,1.523,1.523,0,0,0,.474-1.186,1.8,1.8,0,0,0-1.542-1.779H4.279a1.762,1.762,0,0,1-1.3-2.965,1.523,1.523,0,0,1,1.186-.474H15.783A1.5,1.5,0,0,0,16.85,15.9a2.481,2.481,0,0,0,.474-.712,1.909,1.909,0,0,0-1.9-2.253H12.343a1.762,1.762,0,0,1-1.3-2.965A1.523,1.523,0,0,1,12.225,9.5H21.95c.119,0,.119,0,.119.119Z" transform="translate(-2.5 -9.5)"/>
            <path id="Path_6" data-name="Path 6" class="cls-2" d="M18.416,34.379a1.812,1.812,0,0,1-.474,1.186,1.523,1.523,0,0,1-1.186.474H13.079A1.747,1.747,0,0,1,11.3,34.26a1.812,1.812,0,0,1,.474-1.186A1.523,1.523,0,0,1,12.96,32.6h3.676A1.906,1.906,0,0,1,18.416,34.379Z" transform="translate(-0.864 -5.205)"/>
            <path id="Path_7" data-name="Path 7" class="cls-2" d="M11.879,22.76a1.812,1.812,0,0,1-.474,1.186,1.375,1.375,0,0,1-1.186.474H6.66A1.619,1.619,0,0,1,5,22.76a1.812,1.812,0,0,1,.474-1.186A1.523,1.523,0,0,1,6.66,21.1h3.558A1.7,1.7,0,0,1,11.879,22.76Z" transform="translate(-2.035 -7.343)"/>
          </g>
        </g>
      </g>
    </g>
  </g>
</svg>
