<svg xmlns="http://www.w3.org/2000/svg" width="275.015" height="106" viewBox="0 0 275.015 106">
  <defs>
    <style>
      .cls-1, .cls-3 {
        fill: #0167f3;
      }

      .cls-2 {
        fill: #fdfdfd;
        font-size: 17px;
        font-family: TwCenMT-Regular, Tw Cen MT;
      }

      .cls-3 {
        font-size: 75px;
        font-family: VIPRawyRegular, VIP Rawy Regular;
      }

      .cls-4 {
        fill: #ff4747;
      }

      .cls-5 {
        fill: #fcce4f;
      }

      .cls-6 {
        fill: #34ff4e;
      }

      .cls-7 {
        fill: red;
      }
    </style>
  </defs>
  <g id="Group_4" data-name="Group 4" transform="translate(-781.95 -391)">
    <g id="Group_2" data-name="Group 2">
      <g id="Group_1" data-name="Group 1">
        <path id="Path_1" data-name="Path 1" class="cls-1" d="M-57.016-10.653H2.574A7.126,7.126,0,0,1,9.566-3.4V19a7.126,7.126,0,0,1-6.992,7.252H-57.016A7.126,7.126,0,0,1-64.008,19V-3.4C-64.008-7.406-79.946-14.043-57.016-10.653Z" transform="translate(1047.399 447.482)"/>
        <text id="S_T_O_R_E" data-name="S T O R E" class="cls-2" transform="translate(988 461)"><tspan x="0" y="0">S T O R E</tspan></text>
        <g id="Group_3" data-name="Group 3">
          <text id="دكاكين" class="cls-3" transform="translate(790 468)"><tspan x="0" y="0">دكاكين</tspan></text>
        </g>
        <path id="Path_2" data-name="Path 2" class="cls-1" d="M32.2,41.987a4.087,4.087,0,0,0,8.174,0A4.109,4.109,0,0,0,36.287,37.9,4.161,4.161,0,0,0,32.2,41.987Zm2.672,0a1.415,1.415,0,0,1,2.829,0,1.417,1.417,0,1,1-2.829,0Z" transform="translate(979.948 388.739)"/>
        <path id="Path_3" data-name="Path 3" class="cls-1" d="M44.2,41.987a4.087,4.087,0,0,0,8.174,0A4.109,4.109,0,0,0,48.287,37.9,4.161,4.161,0,0,0,44.2,41.987Zm2.672,0a1.415,1.415,0,1,1,2.829,0,1.417,1.417,0,1,1-2.829,0Z" transform="translate(977.379 388.739)"/>
        <path id="Path_4" data-name="Path 4" class="cls-1" d="M51.8,13.274a2.252,2.252,0,0,0-1.729-.786H24.924L23.038,4.315A1.754,1.754,0,0,0,21.388,2.9H16.75A1.549,1.549,0,0,0,15.1,4.472a1.567,1.567,0,0,0,1.65,1.65h3.38l4.637,21.063a1.754,1.754,0,0,0,1.65,1.415H46.223a2.074,2.074,0,0,0,2.2-1.729l3.694-11.4A1.818,1.818,0,0,0,51.8,13.274ZM33.02,25.378H27.911l-.943-4.558h5.973v4.558Zm0-6.13H26.732l-.707-3.537H33.02Zm6.838,6.13H34.434V20.82h5.423Zm0-6.13H34.434V15.711h5.423Zm5.737,6.13H41.429V20.82h5.659Zm1.965-6.13H41.351V15.711h7.388Z" transform="translate(983.608 396.231)"/>
        <path id="Path_5" data-name="Path 5" class="cls-1" d="M20.105,29.856c0,.079,0,.157-.079.157H16.1a1.168,1.168,0,0,1-.865-1.965,1.009,1.009,0,0,1,.786-.314h1.415a1.2,1.2,0,0,0,.786-.314,1.644,1.644,0,0,0,.314-.472,1.265,1.265,0,0,0-1.258-1.493H8.788a1.168,1.168,0,0,1-.865-1.965,1.009,1.009,0,0,1,.786-.314h3.93a1.2,1.2,0,0,0,.786-.314,1.644,1.644,0,0,0,.314-.472A1.265,1.265,0,0,0,12.481,20.9H11.3a1.168,1.168,0,0,1-.865-1.965,1.009,1.009,0,0,1,.786-.314h3.851a1.2,1.2,0,0,0,.786-.314,1.009,1.009,0,0,0,.314-.786,1.19,1.19,0,0,0-1.022-1.179H3.679a1.168,1.168,0,0,1-.865-1.965,1.009,1.009,0,0,1,.786-.314h7.7a1,1,0,0,0,.707-.314,1.644,1.644,0,0,0,.314-.472,1.265,1.265,0,0,0-1.258-1.493H9.023a1.168,1.168,0,0,1-.865-1.965A1.009,1.009,0,0,1,8.945,9.5h6.445c.079,0,.079,0,.079.079Z" transform="translate(986.305 394.818)"/>
        <path id="Path_6" data-name="Path 6" class="cls-1" d="M16.016,33.779a1.2,1.2,0,0,1-.314.786,1.009,1.009,0,0,1-.786.314H12.479A1.157,1.157,0,0,1,11.3,33.7a1.2,1.2,0,0,1,.314-.786A1.009,1.009,0,0,1,12.4,32.6h2.436A1.263,1.263,0,0,1,16.016,33.779Z" transform="translate(984.421 389.873)"/>
        <path id="Path_7" data-name="Path 7" class="cls-1" d="M9.1,22.09a1.08,1.08,0,0,1-.283.707.82.82,0,0,1-.707.283H5.99A.965.965,0,0,1,5,22.09a1.08,1.08,0,0,1,.283-.707A.908.908,0,0,1,5.99,21.1H8.11A1.011,1.011,0,0,1,9.1,22.09Z" transform="translate(988.457 394.648)"/>
        <path id="Polygon_1" data-name="Polygon 1" class="cls-1" d="M6.456,0l6.456,11.537H0Z" transform="translate(786.458 429.1) rotate(23)"/>
        <path id="Polygon_2" data-name="Polygon 2" class="cls-4" d="M8.219,0l8.219,13.91H0Z" transform="translate(958.703 411.687) rotate(81)"/>
        <path id="Path_8" data-name="Path 8" class="cls-5" d="M5.955,0,10.5,10.226-1.545,9.494Z" transform="translate(938.376 471.528) rotate(19)"/>
        <path id="Polygon_4" data-name="Polygon 4" class="cls-6" d="M6.955,0,13.91,11.381H0Z" transform="translate(853.263 409.943) rotate(51)"/>
        <ellipse id="Ellipse_1" data-name="Ellipse 1" class="cls-7" cx="4.5" cy="4" rx="4.5" ry="4" transform="translate(807 430)"/>
      </g>
    </g>
  </g>
</svg>
